<?xml version="1.0" encoding="UTF-8"?>
<!-- Created with Inkscape (http://www.inkscape.org/) -->
<svg width="1080mm" height="212.53mm" version="1.1" viewBox="0 0 1080 212.53" xmlns="http://www.w3.org/2000/svg" xmlns:xlink="http://www.w3.org/1999/xlink">
 <defs>
  <pattern id="pattern21" patternTransform="matrix(0 -.23614 .2 0 0 50.655)" preserveAspectRatio="none" xlink:href="#Alternating Chevron"/>
  <pattern id="Alternating Chevron" width="100" height="100" fill="#529273" patternTransform="scale(.3)" patternUnits="userSpaceOnUse">
   <path d="m100 100v-50l-50 50zm-50-100v50l50-50zm-50 0 50 50v50l-50-50z"/>
  </pattern>
 </defs>
 <g transform="translate(-10.021 -131.71)">
  <rect x="10.021" y="131.71" width="1080" height="212.53" fill="#2f855a" stroke-linecap="round" stroke-linejoin="round" stroke-width="2.2662"/>
  <rect x="10.021" y="131.71" width="1080" height="212.53" fill="url(#pattern21)" stroke-linecap="round" stroke-linejoin="round" stroke-width="2.2662"/>
  <rect transform="translate(-1.2708e-7 .016565)" x="10.021" y="165.22" width="1080" height="98.66" fill="#eef0f1" stroke-width="0" style="paint-order:stroke markers fill"/>
  <g transform="translate(-1.5498e-8 .016566)">
   <g transform="translate(12.622 31.589)" stroke-width="0" style="paint-order:stroke markers fill">
    <g transform="matrix(3.8938 0 0 3.8938 316.45 144.97)" fill="#c83737" style="paint-order:stroke markers fill">
     <path d="m109.38 18.237-3.881-5.745 3.857-5.3357h3.904l-4.656 5.9972 0.113-1.4372 4.77 6.5207zm-7.1 0v-16.553h3.493v16.553z" style="paint-order:stroke markers fill"/>
     <path d="m96.322 18.488c-1.1409 0-2.176-0.2508-3.1034-0.7525-0.9289-0.5016-1.6591-1.1934-2.1911-2.0739-0.5334-0.882-0.7994-1.8701-0.7994-2.9641 0-1.1109 0.266-2.0986 0.7994-2.964 0.5472-0.88195 1.2859-1.5737 2.2133-2.0754 0.9285-0.50165 1.9703-0.75247 3.1267-0.75247 0.8682 0 1.6591 0.15169 2.3742 0.45614 0.7306 0.28928 1.3766 0.72884 1.9406 1.3229l-2.237 2.2338c-0.2589-0.2879-0.5634-0.5017-0.9133-0.6382-0.3351-0.1362-0.7221-0.2053-1.1645-0.2053-0.5017 0-0.9511 0.1146-1.3466 0.3418-0.3803 0.2138-0.6847 0.5169-0.9123 0.9123-0.2134 0.3803-0.3196 0.8283-0.3196 1.3452 0 0.5164 0.1062 0.9726 0.3196 1.368 0.2276 0.3958 0.5405 0.707 0.936 0.9345 0.3954 0.2286 0.8364 0.3419 1.3229 0.3419 0.4575 0 0.8597-0.0759 1.2096-0.2276 0.3655-0.1668 0.6781-0.3954 0.936-0.6833l2.2142 2.2338c-0.578 0.6075-1.2318 1.0721-1.962 1.3903-0.7306 0.3044-1.5448 0.4561-2.4433 0.4561z" style="paint-order:stroke markers fill"/>
     <path d="m85.001 18.237v-11.081h3.4918v11.081zm1.7568-12.608c-0.5468 0-1.0044-0.18345-1.3695-0.54857-0.3499-0.37888-0.5253-0.83502-0.5253-1.367 0-0.54716 0.1754-1.0033 0.5253-1.3684 0.3651-0.36512 0.8227-0.54716 1.3695-0.54716 0.5486 0 0.9966 0.18204 1.3465 0.54716 0.35 0.36512 0.525 0.82126 0.525 1.3684 0 0.53199-0.175 0.98813-0.525 1.367-0.3499 0.36512-0.7979 0.54857-1.3465 0.54857z" style="paint-order:stroke markers fill"/>
     <path d="m79.044 1.6838h3.4918v16.553h-3.4918z" style="paint-order:stroke markers fill"/>
    </g>
    <path d="m573.04 215.98v-62.677h13.951v62.677zm10.666-24.591v-11.988h26.889l5.2048 5.9934-5.2048 5.9944zm0-26.099v-11.988h32.796v11.988z" fill="#333333" style="paint-order:stroke markers fill"/>
    <g transform="matrix(3.8938 0 0 3.8938 316.45 144.97)" fill="#c83737" style="paint-order:stroke markers fill">
     <path d="m55.876 18.237-3.8805-5.745 3.8572-5.3357h3.9028l-4.6567 5.9972 0.1147-1.4372 4.7706 6.5207zm-7.0996 0v-16.553h3.4921v16.553z" style="paint-order:stroke markers fill"/>
     <path d="m42.82 18.488c-1.1412 0-2.1759-0.2508-3.1048-0.7525-0.9274-0.5016-1.6577-1.1934-2.1911-2.0739-0.532-0.882-0.798-1.8701-0.798-2.9641 0-1.1109 0.266-2.0986 0.798-2.964 0.5486-0.88195 1.2859-1.5737 2.2144-2.0754 0.9288-0.50165 1.9706-0.75247 3.127-0.75247 0.8682 0 1.6591 0.15169 2.3742 0.45614 0.7302 0.28928 1.3765 0.72884 1.9403 1.3229l-2.2366 2.2338c-0.259-0.2879-0.5634-0.5017-0.9137-0.6382-0.3348-0.1362-0.7232-0.2053-1.1642-0.2053-0.5017 0-0.9511 0.1146-1.3466 0.3418-0.3802 0.2138-0.6847 0.5169-0.9136 0.9123-0.2121 0.3803-0.3182 0.8283-0.3182 1.3452 0 0.5164 0.1061 0.9726 0.3182 1.368 0.2289 0.3958 0.5404 0.707 0.9373 0.9345 0.3954 0.2286 0.8364 0.3419 1.3229 0.3419 0.4575 0 0.8597-0.0759 1.2097-0.2276 0.3651-0.1668 0.678-0.3954 0.9359-0.6833l2.2144 2.2338c-0.5789 0.6075-1.2333 1.0721-1.9636 1.3903-0.7306 0.3044-1.5434 0.4561-2.4419 0.4561z" style="paint-order:stroke markers fill"/>
     <path d="m31.499 18.237v-11.081h3.4918v11.081zm1.7568-12.608c-0.5482 0-1.0043-0.18345-1.3695-0.54857-0.3503-0.37888-0.5252-0.83502-0.5252-1.367 0-0.54716 0.1749-1.0033 0.5252-1.3684 0.3652-0.36512 0.8213-0.54716 1.3695-0.54716 0.5472 0 0.9966 0.18204 1.3466 0.54716 0.3499 0.36512 0.5249 0.82126 0.5249 1.3684 0 0.53199-0.175 0.98813-0.5249 1.367-0.35 0.36512-0.7994 0.54857-1.3466 0.54857z" style="paint-order:stroke markers fill"/>
     <path d="m24.126 18.488c-1.0195 0-1.9251-0.2053-2.7174-0.6145-0.7758-0.4258-1.3836-1.0033-1.8256-1.7336-0.441-0.7443-0.6615-1.5959-0.6615-2.5537v-6.4297h3.4918v6.3845c0 0.3803 0.0607 0.7066 0.1834 0.9797 0.1362 0.2741 0.3348 0.4865 0.5923 0.6392 0.2593 0.1517 0.5705 0.2276 0.937 0.2276 0.5168 0 0.9275-0.1599 1.2323-0.4784 0.3044-0.3348 0.4561-0.7909 0.4561-1.3681v-6.3845h3.4918v6.4064c0 0.973-0.2205 1.8327-0.6615 2.577-0.4409 0.7303-1.0502 1.3078-1.8259 1.7336-0.7758 0.4092-1.6743 0.6145-2.6928 0.6145z" style="paint-order:stroke markers fill"/>
    </g>
    <g transform="matrix(14.717 0 0 14.717 168.98 -1370.5)" style="paint-order:stroke markers fill">
     <path d="m11.869 102.98h0.78535c0.24064 0 0.4342 0.19359 0.4342 0.43384v0.27712c0 0.24026-0.19357 0.43384-0.4342 0.43384h-0.78535c-0.24063 0-0.43468-0.19358-0.43468-0.43384v-0.27712c0-0.24025 0.19405-0.43384 0.43468-0.43384z" fill="#ffcc00" style="paint-order:stroke markers fill"/>
     <g transform="matrix(.26458 0 0 .26458 10.021 102.98)" fill="#ffcc00" style="paint-order:stroke markers fill">
      <path d="m8.468 3.4283c0.2727 0 0.49318 0.24272 0.49318 0.54575v2.2765c0 0.30197-0.22048 0.54574-0.49318 0.54574-0.27446 0-0.49353-0.24377-0.49353-0.54574v-2.2765c0-0.30303 0.21907-0.54575 0.49353-0.54575z" style="paint-order:stroke markers fill"/>
      <path d="m8.468 13.546c0.2727 0 0.49318 0.2441 0.49318 0.5472v2.275c0 0.3034-0.22048 0.5472-0.49318 0.5472-0.27446 0-0.49353-0.2438-0.49353-0.5472v-2.275c0-0.3031 0.21907-0.5472 0.49353-0.5472z" style="paint-order:stroke markers fill"/>
      <path d="m5.3879 10.018c0 0.2731-0.24377 0.4922-0.54716 0.4922h-2.2779c-0.30304 0-0.54681-0.2191-0.54681-0.4922 0-0.27406 0.24377-0.49313 0.54681-0.49313h2.2779c0.30339 0 0.54716 0.21907 0.54716 0.49313z" style="paint-order:stroke markers fill"/>
      <path d="m14.961 10.018c0 0.2731-0.2438 0.4922-0.5472 0.4922h-2.2778c-0.3031 0-0.5472-0.2191-0.5472-0.4922 0-0.27406 0.2441-0.49313 0.5472-0.49313h2.2778c0.3034 0 0.5472 0.21907 0.5472 0.49313z" style="paint-order:stroke markers fill"/>
     </g>
     <path d="m12.274 107.87c-0.318 0-0.61398-0.0565-0.88784-0.16876-0.27386-0.11266-0.51336-0.26947-0.71862-0.47072-0.20133-0.20124-0.36028-0.43431-0.47696-0.69966-0.11303-0.26948-0.16913-0.55928-0.16913-0.86889 0-0.31353 0.0561-0.60306 0.16913-0.86852 0.11266-0.26536 0.26947-0.49693 0.47071-0.69378 0.20563-0.20124 0.44299-0.3559 0.71283-0.46455 0.27386-0.11266 0.56955-0.16913 0.88784-0.16913 0.32193 0 0.61799 0.0565 0.88774 0.16913 0.27387 0.10865 0.51123 0.26331 0.71247 0.46455 0.20524 0.19685 0.36468 0.43019 0.47734 0.69966 0.11266 0.26546 0.16912 0.5549 0.16912 0.86888 0 0.30954-0.05646 0.59897-0.16912 0.86844-0.11266 0.26546-0.2721 0.4988-0.47734 0.70004-0.20124 0.19695-0.43675 0.35189-0.70657 0.46455-0.26985 0.11229-0.56368 0.16876-0.8816 0.16876zm1.9024 0.26545-1.7184-1.7162v-0.54901h0.54949l1.7184 1.7161zm-1.9145-1.1281c0.25771 0 0.48089-0.0565 0.67009-0.16875 0.18928-0.11266 0.33621-0.26985 0.44119-0.4707 0.10866-0.20537 0.16298-0.44048 0.16298-0.70593 0-0.20087-0.03024-0.38213-0.09083-0.54286-0.06011-0.16483-0.1469-0.30559-0.25956-0.42226-0.11266-0.12069-0.24754-0.21104-0.40473-0.27162-0.15279-0.0641-0.32593-0.0962-0.51914-0.0962-0.25379 0-0.47509 0.0561-0.66429 0.16876-0.18929 0.10874-0.33835 0.2633-0.44709 0.46454-0.10463 0.19685-0.15709 0.4302-0.15709 0.69967 0 0.20124 0.03024 0.38428 0.09082 0.54911 0.06048 0.16484 0.14692 0.30774 0.25958 0.42842 0.11266 0.11631 0.24576 0.20711 0.39846 0.27125 0.15718 0.0645 0.33032 0.0966 0.51962 0.0966z" fill="#333333" style="paint-order:stroke markers fill"/>
    </g>
   </g>
   <text x="550.05634" y="296.11807" fill="#eef0f1" font-family="'Google Sans'" font-size="27.183px" letter-spacing="0px" stroke-linecap="round" stroke-linejoin="round" stroke-width="2.2662" text-align="center" text-anchor="middle" style="line-height:1" xml:space="preserve"><tspan x="550.05634" y="296.11807" fill="#eef0f1" font-family="'Google Sans'" font-style="italic" stroke-width="2.2662">A Reaction Game</tspan></text>
  </g>
 </g>
</svg>
